Coordinates
version=1
nRows=16
nColumns=36
inDegrees=yes

Units are S.I. units (second, meters, Newtons, ...)
If the header above contains a line with 'inDegrees', this indicates whether rotational values are in degrees (yes) or radians (no).

endheader
time	pelvis_tilt	pelvis_list	pelvis_rotation	pelvis_tx	pelvis_ty	pelvis_tz	hip_flexion_r	hip_adduction_r	hip_rotation_r	knee_angle_r	knee_angle_r_beta	ankle_angle_r	subtalar_angle_r	mtp_angle_r	hip_flexion_l	hip_adduction_l	hip_rotation_l	knee_angle_l	knee_angle_l_beta	ankle_angle_l	subtalar_angle_l	mtp_angle_l	lumbar_extension	lumbar_bending	lumbar_rotation	arm_flex_r	arm_add_r	arm_rot_r	elbow_flex_r	pro_sup_r	arm_flex_l	arm_add_l	arm_rot_l	elbow_flex_l	pro_sup_l
      0.00000000	      5.98219342	     -0.33860950	      4.11060049	     -0.88122037	      1.27042796	     -0.10231727	    -11.20260777	     -0.89825817	     -0.35517291	      2.01629083	      0.03519091	     -0.34559817	    -11.83350503	     -6.65833455	     -9.60387005	     -2.04239074	      1.02254657	      3.74565028	      0.06537393	      3.86144404	     -5.06294396	     -6.65833455	    -18.13158479	      1.37410284	     -1.78584044	     21.78770943	    -11.53603031	     24.71767452	     42.73172512	     83.77588461	     23.62015679	    -10.38185875	     26.60840201	     34.36750830	     74.01462375
      0.00416670	      6.41155420	      0.90196855	      4.41879950	     -0.87981979	      1.27052213	     -0.10092728	    -11.82729124	     -1.82460508	      0.08418064	      1.71310434	      0.02989931	      2.16829007	     -9.42781612	     -6.94952010	    -10.39427091	     -0.64152290	      2.29965273	      3.53004111	      0.06161084	      2.71690527	     -5.25318864	     -6.94952010	    -19.34949389	      0.19856288	     -2.32295816	     22.89754764	    -11.08844881	     27.02157731	     42.54273385	     80.51528999	     25.29423262	    -10.83462888	     25.68788668	     33.67622091	     71.77802494
      0.00833330	      6.05923960	      1.26449530	      3.67977567	     -0.88158678	      1.27228420	     -0.10033361	    -11.30455303	     -2.25470841	     -0.69685360	      1.85059998	      0.03229906	      1.49509170	    -10.32976436	     -7.08244244	    -10.22369735	     -0.15798288	      2.66761134	      3.46341935	      0.06044807	      1.96841902	     -4.54357374	     -7.08244244	    -19.72711964	     -0.35391370	     -2.00535725	     23.85629326	    -11.69187292	     29.24533335	     42.81348213	     80.64656838	     25.84012108	    -11.42665718	     26.23160806	     33.64814752	     71.34845832
      0.01250000	      6.13370499	      1.81538108	      3.73269348	     -0.87898910	      1.27429095	     -0.09917700	    -11.74892307	     -2.88429229	     -1.50582377	      1.34416913	      0.02346018	      2.00333924	     -8.81139109	     -7.15025654	    -10.75045232	      0.42485378	      2.78888740	      2.58834374	      0.04517512	      0.89113783	     -5.56931853	     -7.15025654	    -19.79608211	     -1.00255344	     -1.89622383	     23.98240993	    -11.92844088	     29.14865346	     43.13038042	     79.90748113	     26.19711843	    -11.78412288	     26.54650996	     33.86651767	     70.81170071
      0.01666670	      5.77843144	      1.95389943	      3.73057692	     -0.87856928	      1.27316533	     -0.10025639	    -11.63071780	     -3.08254513	     -1.79610741	      1.10580405	      0.01929992	      1.89953930	     -8.73245363	     -7.25836261	    -10.57658447	      0.68590361	      2.80381241	      2.20507552	      0.03848583	      0.46376216	     -6.18462186	     -7.25836261	    -19.41104257	     -1.03713406	     -1.68857169	     23.93923024	    -12.14095379	     28.73550097	     43.54366213	     78.29323267	     26.13411137	    -11.90329982	     26.83519691	     34.35353939	     69.88035395
      0.02083330	      5.38122566	      2.12259379	      3.81858686	     -0.87769373	      1.27523399	     -0.10060230	    -11.34172694	     -3.26604694	     -2.07301510	      0.86820261	      0.01515299	      1.85780908	     -8.25149411	     -7.42796016	    -10.29078420	      0.93087800	      2.58921654	      1.83310032	      0.03199364	     -0.01105624	     -6.57954578	     -7.42796016	    -18.98114642	     -1.17135424	     -1.47998846	     23.43159891	    -12.03345485	     26.06570209	     43.91520319	     83.86344185	     26.21858760	    -11.67777963	     26.43557816	     34.48278696	     72.97466569
      0.02500000	      5.56470317	      2.12601429	      3.83142861	     -0.87982172	      1.27643912	     -0.09865201	    -11.59811103	     -3.16443384	     -2.43314008	      0.77179513	      0.01347037	      1.39472380	     -8.74548595	     -7.45272685	    -10.38378728	      0.91798542	      2.54385055	      1.78698569	      0.03118878	     -0.52526443	     -6.80312266	     -7.45272685	    -19.42531956	     -1.17560522	     -1.49538030	     23.88194518	    -11.88872207	     25.84875127	     44.22842056	     80.00009477	     26.52541236	    -11.72977316	     25.99136487	     35.10655326	     70.78611642
      0.02916670	      5.01964749	      2.25473721	      4.10301706	     -0.87835002	      1.27330238	     -0.09923540	    -11.10381145	     -3.23505505	     -2.87572706	      0.66269330	      0.01156618	      1.79007709	     -7.86791464	     -7.46453402	     -9.71628139	      1.04936766	      2.60664456	      1.76601865	      0.03082284	     -0.85301458	     -7.65016850	     -7.46453402	    -18.70196635	     -1.42437150	     -1.84042387	     23.89659148	    -11.53081601	     25.24109299	     44.16237180	     77.84519174	     26.75261685	    -11.81213650	     25.43835160	     35.31270829	     69.60901553
      0.03333330	      4.93705818	      2.28908637	      4.05070590	     -0.87847760	      1.27789395	     -0.09928229	    -11.03693441	     -3.25725036	     -3.12351712	      0.56510713	      0.00986298	      1.57979519	     -7.90278911	     -7.46466078	     -9.60185343	      1.08720953	      2.23193407	      1.79853533	      0.03139036	     -1.16052759	     -7.66373007	     -7.46466078	    -18.68589494	     -1.52971659	     -1.87555393	     24.14582552	    -11.41082438	     25.17817409	     44.30235952	     77.89032279	     27.18148569	    -11.85729883	     25.36579967	     35.46880762	     69.64598275
      0.03750000	      4.41697206	      2.31444084	      4.10323493	     -0.87739428	      1.27363031	     -0.09973518	    -10.49095614	     -3.32849993	     -3.03262399	      0.52048126	      0.00908411	      1.82978550	     -7.40373528	     -7.46618136	     -8.97076963	      1.14419182	      2.14903460	      1.91427470	      0.03341040	     -1.16961120	     -7.77530878	     -7.46618136	    -17.96338608	     -1.63488406	     -1.96443005	     23.95369914	    -11.39095906	     24.33166753	     45.11025376	     77.99389847	     27.12892667	    -11.97559131	     24.79363078	     36.44596608	     69.81399393
      0.04166670	      4.37725986	      2.30793317	      4.10724246	     -0.87622700	      1.27602245	     -0.10142500	    -10.46334617	     -3.37255543	     -3.18968942	      0.47436279	      0.00827919	      1.68282953	     -7.13212245	     -7.47312626	     -8.97269914	      1.19758554	      1.98606561	      1.90453227	      0.03324036	     -1.27169588	     -7.76127448	     -7.47312626	    -17.85769522	     -1.55407017	     -2.03843881	     23.93781496	    -11.38661872	     23.66017727	     45.73087742	     77.73647960	     27.08795244	    -11.76584881	     23.67422582	     37.08691974	     69.86970991
      0.04583330	      4.21600420	      2.20585333	      4.00447469	     -0.87967993	      1.27868534	     -0.09891399	    -10.14646894	     -3.30280734	     -3.09163375	      0.42641145	      0.00744228	      1.55138139	     -6.91525613	     -7.47321858	     -8.78909327	      1.14016078	      1.98803843	      1.82160560	      0.03179302	     -1.34125076	     -7.68779708	     -7.47321858	    -17.80536196	     -1.49863704	     -1.99894365	     24.31681812	    -11.18459773	     23.59489463	     45.82756437	     77.76054123	     27.56681576	    -11.71964288	     23.57034527	     37.19996314	     69.88578995
      0.05000000	      3.74757433	      2.07269502	      3.97355758	     -0.87891715	      1.28509645	     -0.10023535	     -9.57024745	     -3.22083700	     -3.37162885	      0.39892515	      0.00696256	      1.44541953	     -5.84945594	     -7.48416008	     -8.18801247	      1.07274239	      1.97418153	      1.91372390	      0.03340078	     -1.40487279	     -7.20945999	     -7.48416008	    -17.35326340	     -1.32568069	     -2.09996000	     24.63656758	    -10.90473529	     23.44060278	     45.39096780	     75.03356424	     27.54478179	    -11.41467672	     22.43673945	     37.25860819	     68.34191231
      0.05416670	      3.84504424	      1.93610570	      3.81105273	     -0.87932545	      1.28110124	     -0.09849224	     -9.60939111	     -3.05700805	     -3.28767682	      0.38417939	      0.00670520	      1.06575010	     -6.11858549	     -7.48693678	     -8.25925966	      0.93886735	      1.75316113	      1.94041396	      0.03386661	     -1.50262484	     -7.02387412	     -7.48693678	    -17.61308990	     -1.23764677	     -2.05514915	     24.97244750	    -10.75504062	     23.18786268	     45.84473901	     76.67452285	     27.82775377	    -11.43898285	     21.88895104	     37.71146380	     69.43004120
      0.05833330	      4.18621306	      1.82993084	      3.55113155	     -0.87962944	      1.28199274	     -0.09849728	     -9.93648694	     -2.90150076	     -3.47922438	      0.38213120	      0.00666945	     -0.07688334	     -7.41089821	     -7.48813150	     -8.54068951	      0.81173959	      1.76910671	      2.04601515	      0.03570970	     -2.04094763	     -7.04072179	     -7.48813150	    -18.12967022	     -1.19589716	     -1.89744640	     25.43606192	    -10.57694576	     22.91178774	     45.88168041	     76.02695995	     28.23847178	    -11.26436727	     21.30393138	     37.69593016	     68.99619280
      0.06250000	      4.15747716	      1.82195262	      3.32276542	     -0.88007886	      1.28300145	     -0.09832692	     -9.82410672	     -2.92367690	     -3.71823237	      0.36611738	      0.00638995	     -0.15727780	     -7.05656873	     -7.48917054	     -8.45900179	      0.78627332	      1.44359265	      2.18095971	      0.03806493	     -1.83528777	     -6.06264886	     -7.48917054	    -18.19552619	     -1.28272171	     -1.68839957	     25.75524749	    -10.47090256	     22.69202288	     46.21747940	     75.26688450	     28.54325898	    -11.19745781	     20.75993209	     38.05201119	     68.48795015
